<svg xmlns="http://www.w3.org/2000/svg" width="53" height="30" viewBox="0 0 53 30"><defs><style>.a,.e{fill:none;}.a{stroke:#707070;opacity:0;}.b{fill:#696974;font-size:11px;font-family:Roboto-Italic, Roboto;font-style:italic;}.c{fill:#fb8c00;}.d{stroke:none;}</style></defs><g transform="translate(-2200 841)"><g class="a" transform="translate(2200 -841)"><rect class="d" width="53" height="30" rx="3"/><rect class="e" x="0.5" y="0.5" width="52" height="29" rx="2.5"/></g><text class="b" transform="translate(2222 -828)"><tspan x="0" y="0">Flash</tspan><tspan x="0" y="11">Sale</tspan></text><path class="c" d="M3.262-4.951H8.535L5.752,2.568c-.361.977.645,1.484,1.279.693L15.508-7.295a.942.942,0,0,0,.254-.605.64.64,0,0,0-.684-.635H9.8l2.783-7.52c.361-.977-.645-1.484-1.279-.693L2.832-6.191a.942.942,0,0,0-.254.605A.64.64,0,0,0,3.262-4.951Z" transform="translate(2203 -819)"/></g></svg>